<?xml version="1.0" encoding="UTF-8"?><svg id="Layer_2" xmlns="http://www.w3.org/2000/svg" viewBox="0 0 177.16 177.17"><defs><style>.cls-1{opacity:.3;}.cls-1,.cls-2{fill:#79a1d4;stroke-width:0px;}</style></defs><g id="Layer_1-2"><path class="cls-2" d="m0,0v177.17h177.16V0H0Zm88.58,169.69c-44.8,0-81.11-36.31-81.11-81.11S43.78,7.48,88.58,7.48s81.11,36.31,81.11,81.1-36.32,81.11-81.11,81.11Z"/><path class="cls-1" d="m88.58,7.48C43.78,7.48,7.47,43.79,7.47,88.58s36.31,81.11,81.11,81.11,81.11-36.31,81.11-81.11S133.37,7.48,88.58,7.48Zm0,148.43c-37.18,0-67.32-30.14-67.32-67.33S51.4,21.26,88.58,21.26s67.32,30.14,67.32,67.32-30.14,67.33-67.32,67.33Z"/></g></svg>