<?xml version="1.0" encoding="UTF-8"?><svg id="Layer_2" xmlns="http://www.w3.org/2000/svg" viewBox="0 0 96.49 231.42"><defs><style>.cls-1{fill:#f8d7b4;}.cls-1,.cls-2,.cls-3,.cls-4,.cls-5,.cls-6,.cls-7{stroke-width:0px;}.cls-2{fill:#7c2217;}.cls-3{fill:#3f1d11;}.cls-4{fill:#1c1a19;}.cls-5{fill:#c1cdd7;}.cls-6{fill:#ec6024;}.cls-7{fill:#eaa4aa;}</style></defs><g id="Layer_1-2"><rect class="cls-7" x="37.23" y="147.94" width="22.03" height="66.79"/><polygon class="cls-7" points="48.24 231.42 10.74 193.93 85.75 193.93 48.24 231.42"/><path class="cls-4" d="m30.89,99.4c.16-.26.33-.51.49-.77,2.04-1.86,3.26-4.5,6.33-6.1-8.06-.57-14.98-2.41-20.74-7.39-1.07-1.47-2.56-2.59-3.44-4.23-.27-.5-.65-.62-1.3-.46-7.25,1.8-13.23-5.51-12.1-12.54.42-2.58,1.4-4.94,3.46-6.6.93-.75.93-1.47.68-2.39-2.78-10.41-2.86-21.05-2.57-31.7.06-2.19.86-4.33,1.94-6.3,1.52-2.8,3.08-5.58,4.52-8.42,1.49-2.96,3.86-4.46,7.12-4.69,1.81-.13,3.61-.27,5.34-.99,1-.42,1.85-.78,2.36-1.82.51-1.04,1.58-1.34,2.61-1.47,2.47-.31,4.77-.57,7.02-2.19,2.54-1.83,5.89-1.38,8.94-.96,2.57.35,5.17.57,7.66,1.4.47.16,1.05.37,1.5-.03,2.53-2.28,5.45-1.35,8.21-.87,2.61.45,5.16,1.26,7.69,2.07,2.53.81,5,1.81,7.25,3.29,1.06-2.39,1.99-2.64,4.1-1,2.13,1.65,3.81,3.73,5.37,5.92.89,1.68,1.6,3.44,2,5.29.24,1.14.8,1.81,1.74,2.42,5.07,3.28,7.89,7.95,7.92,14.03.04,8.91-.68,17.76-2.83,26.44-.21.85-.25,1.48.59,2.22,3.67,3.23,4.74,8.49,2.78,12.88-2.08,4.66-5.92,6.85-11.2,6.27-.75-.08-1.17.02-1.62.66-3.77,5.43-9.2,8.27-15.41,9.96-2.56.7-5.18.96-7.76,1.26,0,.93.67.98,1.03,1.3,4.74,4.18,8.97,8.78,11.21,14.82,1.01,2.72.52,5.29-1.6,7.41-1.16,1.16-3.07,1.09-4.1,1.96-1.05.88-.09,3.26-1.27,4.47-1.74,1.79-1.85,3.98-1.95,6.18-.1,2.28-.07,4.58.07,6.86.09,1.52-.54,2.45-1.77,3.18-3.03,1.81-8.54,1.57-11.34-.57-.53-.4-.87-.93-1.63-.28-2.74,2.36-6.04,2.25-9.3,1.83-3.21-.41-4.47-1.91-4.34-4.59.52-3.6-.09-7.15-.49-10.7-.03-.28-.23-.63-.46-.79-1.6-1.15-2.13-2.71-1.89-4.61.07-.53-.04-.76-.64-.93-5.06-1.43-6.78-4.93-4.97-9.97,1.09-3.02,2.79-5.71,4.51-8.38.23-.03.32-.16.28-.39Zm18.95,11.03c.56-.07.85-.36.64-.93-.15-.39-.48-.65-.92-.57-.63.12-.48.67-.52,1.11.04.97-.19,1.98.34,3.26.66-1.12.35-2.03.46-2.87Zm3.44-8.09c-2.35-.28-1.52,1.07-1.11,2.2,0,.52,0,1.04.01,1.57-.72,1.36-.32,2.82-.38,4.23-.04,1.04.66,1.32,1.56,1.26-.08.7-.04,1.37.39,1.96-.09.09-.18.25-.28.25-1.64.1-2.91.86-2.78,2.57.13,1.75,1.77,2.21,3.2,2.24,2.19.05,4.39.2,6.61-.22,1.34-.25,1.41-.83,1.51-1.93.46-4.84-1.6-8.96-3.58-13.11-.34-1.01-.96-1.96-.65-3.11,1.27.29,1.53,1.5,2.06,2.4,1.5,2.52,3.94,3.48,6.57,4.18.38.22.51.92,1.28.66-1.43-2.81-3.2-5.29-5.24-7.55-1.38-1.52-2.57-3.3-4.72-3.9-.42-.53-.55-1.54-1.63-1.03-.69.4-1.14,1.04-1.63,1.65-1.03,1.28-1.9,2.51-.33,4.01.44.42.32.95-.03,1.42-.28.08-.56.16-.84.24Zm-12.88-6.9c-.12.15-.24.31-.36.46-.35.17-.43.47-.38.82-.25.74-.5,1.49-.75,2.23-.61,1.8.19,3.81-.81,5.55.15,3.32-1.47,6.39-1.28,9.76.1,1.85.41,2.81,2.33,3.53,1.41.52,2.83.76,4.24,1.15,1.17.32,1.89-.23,2.11-1.4.3-1.58.45-3.34,1.1-4.67,1.29-2.6.03-5.26.73-7.83.18-.65-.2-2.08-1.43-2.47-1.11-.67-1.72-2.02-3.08-2.37-1.43-1.23-1.83-2.92-2.07-4.68,1.51.79,1.87,2.93,4.29,3.54-1.35-1.63-2.32-2.89-3.4-4.04-.5-.54-1.07-.45-1.25.42Zm-4.28,5.17c.38-1.15,2.72-1.46,1.41-3.33.13-.59.95-.82.88-1.84-3.01,2.35-4.89,5.29-6.65,8.31-.71.63-.93,1.54-1.35,2.33-.33.62-.25,1.15.61,1.23,1.03.77,1.8,0,2.28-.64.8-1.07,1.74-2.07,2.4-3.18.41-.69,2.03-1.71.43-2.88Zm17.29,28.92h2.23c.69.29,1.38.29,2.08.01.78-.13,2.11.69,2.14-.77.03-1.36-1.32-.9-2.13-.92-1.42-.04-2.84.07-4.26.12-.58-.17-1.18-.65-1.69.13-.18.89.03,1.46,1.09,1.35.15.22.33.25.54.08ZM6.71,54.25c.04.93.21,1.81.87,2.69.5-.99.23-1.85.3-2.68-.62-4.42-.87-8.87-.69-13.33.93.04,1.73-.22,2.56-.71,1.32-.79,2.85-2.05,4.29-1.51,2.19.81,4.4.22,6.53.4,3.78.31,7.68.15,11.52.24,1.03.02,2.09.38,3.07.2,4.05-.72,8.27-.7,12.01-2.78.46-.26,1.03-.55,1.83-.29-.37.92-1.11,1.46-1.74,2.05-.71.67-1.52,1.22-2.22,1.89-.39.38-1.21.76-.85,1.36.43.7,1.18.14,1.76-.06,4.62-1.59,9-3.63,12.64-7.01.53-.49,1.16-1.08,2.09-.62-.23,1-1.17,1.67-1.06,2.73.05.43-.15.96.39,1.21.42.2.71-.13,1.05-.33,4.56-2.67,7.3-6.71,8.75-11.71h0c.26,0,.52,0,.78,0h0c.07,2.15-.37,4.18-1.05,6.24-.82,2.5-2.45,4.47-3.65,6.72-.03.06-.06.11-.09.17.03-.05.06-.11.09-.16.68.07,1.24-.26,1.84-.52,2.76-1.22,4.89-3.31,7.2-5.16,1.88-1.51,3.47-3.24,4.68-5.32,1.32-1.77,1.01-4.22,2.44-5.94.12.13.23.26.35.39-.05.12-.15.23-.16.35-.1,2.8.69,5.65-.55,8.39-.25.55.38.86.84.59,2.28-1.38,2.29.08,2.19,1.71.03,3.13.16,6.25.3,9.38.23,5.33.09,10.67,1.67,15.84.52,1.72.25,3.46.29,5.21.64-1.2,1.51-2.3.7-3.71-.28-.49.08-.7.52-.78,1.27-2.64,1.73-5.46,1.96-8.34.63-5.64,1.3-11.27,1.33-16.97.04-5.99-2.44-10.27-7.8-12.87-1.02-.49-1.51-1.12-1.72-2.33-.46-2.61-1.25-5.16-3.04-7.24.22,2.03,1.22,3.85,1.43,5.86-1.37-.34-1.87-1.62-2.71-2.54-.71-.77-1.05-1.95-2.32-2.11.14-.7-.37-1.07-.77-1.48-1.49-1.53-3.52-2.11-5.35-3.07-4.07-2.14-8.42-3.28-12.9-4.06-.56-.1-1.16-.11-1.73-.05-.46.05-.89.34-1.05.79-.2.56.33.81.66,1.07.61.47,1.33.83,1.91,1.33.47.4,1.25.81,1.02,1.51-.17.52-.94.57-1.52.69-1.57.34-3.13.72-4.7,1.08-1.15-.02-1.93.64-2.68,1.4-1.24,1.25-2.42,2.55-3.89,3.55-.38.25-.69.69-1.18.28-.46-.39-.54-.96-.26-1.43,1.06-1.77,1.89-3.7,3.71-4.95.98-.68,2.2-1.11,2.84-2.24.4-.02.86-.06.98-.49.21-.79-.6-.52-.89-.64-3.98-1.75-8.19-2.25-12.49-2.11-.76.03-1.53.26-2.26.5-.72.24-1.3.67-.85,1.6.56,1.16-.08,1.4-1.04,1.28-1.82-.23-3.62-.08-5.43.12-.79.22-2.01.17-2.1,1.04-.09.86,1.2.66,1.8,1.06,1.11.73,2.69.83,3.4,2.44-1.85-.2-3.5-.38-5.14-.56-3.5-.67-7.01-.57-10.52-.04-1.88.28-2.94,1.32-2.73,3.35-.3.17-.42.43-.39.77-1.28.62-.94,2.22-1.82,3.06-3.54,3.36-4.95,7.54-4.81,12.33.11,3.72.25,7.43.37,11.14,0,.78-.07,1.57,0,2.34.27,3.29,1.22,6.49,1.19,9.82Zm74.8-17.79c-1.15.64-2,1.26-2.95,1.59-.84.29-1.91,1.13-2.66.04-.66-.97-.98-.59-1.57-.02-1.94,1.86-4.05,3.51-6.65,4.36-1.74.57-3.66,1.22-5.26,0-.95-.72-1.56-.58-2.39-.17-3.1,1.55-6.36,2.3-9.83,2.06-1.24-.08-2.43.11-3.65.47-3.22.93-6.51,1.2-9.88.85-1.91-.2-3.64-1.2-5.49-1.24-4.52-.09-9-.48-13.45-1.2-1.99-.32-2.5.14-2.49,2.2.02,7.53-.46,15.03-2.51,22.34-.24.85-.23,1.87,0,2.72,3.09,11.04,8.55,16.1,19.71,17.92,10.49,1.71,21.13,1.71,31.62.04,12.08-1.92,17.06-7.98,20.1-18.62.17-.59.09-1.32-.06-1.94-2-7.92-2.48-16.01-2.59-24.13-.03-2.34,0-4.67,0-7.27ZM5.76,64.13c-2.95,2.57-2.88,8.18.07,11.31,1.15,1.22,2.52,1.97,4.27,2.03,1.28.04,1.37-.18,1.15-1.51-.76-4.48-4.16-7.63-5.49-11.83Zm87.3,5.59c-.03-1.75-.61-3.31-1.62-4.73-.37-.53-.8-.83-1.1,0-1.41,3.85-4.04,7.13-5.07,11.17-.34,1.34.04,1.4,1.11,1.37,3.65-.09,6.7-3.63,6.68-7.81Zm-40.73,23.15h-7.64c.91,1.91,1.72,3.67,2.58,5.4.49.98,1.33,1.14,2.32.86.56-.16,1.45-.26,1.19-.97-.77-2.08.71-3.44,1.55-5.29Zm-10.3,41.55s0-.01,0-.02c-1.04,0-2.07,0-3.11,0-.62,0-1.19.17-1.42.79-.24.63.14,1.14.54,1.57,1.25,1.36,5.99,1.39,7.27.05.51-.53.86-1.22.59-1.94-.26-.7-.96-.48-1.53-.46-.78.02-1.55,0-2.33,0Zm14-.07s0,.03,0,.04c-1.04,0-2.07-.02-3.11.01-.44.01-.97.04-1.09.61-.1.5-.08.98.34,1.43,1.25,1.37,5.78,1.67,7.09.4.53-.52.87-1.16.6-1.93-.26-.74-.93-.55-1.49-.57-.78-.02-1.56,0-2.33,0Zm-.21-7.86c1.23-.07,2.46-.12,3.69-.21.98-.07,1.1-.81,1.03-1.55-.08-.89-.75-.44-1.19-.41-2.91.2-5.82.41-8.72.64-.39.03-1.06-.25-1.06.44,0,.53.59.58,1.04.66,1.73.32,3.45.56,5.22.44Zm-13.61-1.55v-.11c-1.43-.08-2.87-.14-4.3-.23-.45-.03-.95-.19-1,.53-.03.55-.02,1.1.71,1.15,2.99.2,5.98.48,8.96-.16.4-.09.84-.24.81-.7-.05-.71-.68-.46-1.07-.47-1.37-.03-2.74-.01-4.11-.01Zm-.52,6.2c-.91,0-1.81.05-2.72-.01-.7-.05-1.18.19-1.28.86-.12.76.45,1.02,1.09,1.03,1.94.04,3.88.05,5.82.07.72,0,1.08-.36,1.06-1.08-.03-.66-.47-.86-1.06-.86-.97,0-1.94,0-2.91,0Zm14.13,1.85s0,.04,0,.06c.97,0,1.94-.01,2.91,0,.75.01.81-.5.83-1.04.02-.48-.05-.96-.67-.97-2.07-.02-4.14-.02-6.21.01-.6,0-.93.39-.9,1.03.03.61.45.71.93.74,1.03.06,2.07.11,3.1.16Zm-27.25-21.42c0,2,1.18,3.45,2.74,3.45,1.38,0,1.71-.91,1.72-2.08,0-1.21-2.25-3.02-3.72-2.92-1.18.08-.5,1.08-.74,1.54Zm36.27,1.32c0,1.04.67,1.82,1.57,1.85,1.37.03,2.78-1.78,2.72-3.51-.02-.69-.1-1.3-1.08-1.21-1.57.14-3.22,1.57-3.21,2.88Zm-22.78,15.15c-1.49-.07-2.53-.11-3.57-.19-.54-.04-.89.14-1.01.67-.12.52.04.99.59,1.02,2.34.15,4.69.26,7.03-.05.49-.06.87-.37.76-.94-.09-.48-.52-.52-.92-.52-1.11,0-2.22,0-2.88,0Zm7.66-6.54c3.25.59,6.44,0,9.64-.35.98-.11,2.15.13,2.85-.93.2-.3.66-.56.26-.97-.27-.27-.61-.1-.89.08-1.2.77-2.6.67-3.9.97-2.63.61-5.43-.15-7.95,1.2Zm-14.87-2.24c.02,2.06,4.32,3.01,8.6,1.88-2.9-.5-5.88-.58-8.6-1.88Zm13.82,10.84c-.33,1.63-.66,3.25.1,4.82.4-1.63.51-3.24-.1-4.82Zm2.27-25.13c.05-.54-.16-1.14-.61-1.01-.99.28-.23,1.51-.92,2.1-.24.2.15.41.4.4,1.02-.03.79-1,1.13-1.49Zm-2.52-.73c.11.05.22.1.33.14.05-.11.16-.24.13-.32-.03-.08-.23-.16-.3-.13-.08.03-.1.2-.15.31Z"/><path class="cls-1" d="m30.89,99.4c.04.23-.04.36-.28.39.09-.13.18-.26.28-.39Z"/><path class="cls-1" d="m81.5,36.46c0,2.6-.03,4.94,0,7.27.11,8.12.59,16.21,2.59,24.13.16.62.23,1.34.06,1.94-3.04,10.64-8.02,16.7-20.1,18.62-10.49,1.67-21.13,1.67-31.62-.04-11.16-1.82-16.62-6.89-19.71-17.92-.24-.85-.24-1.87,0-2.72,2.04-7.32,2.53-14.81,2.51-22.34,0-2.06.5-2.52,2.49-2.2,4.45.72,8.93,1.1,13.45,1.2,1.84.04,3.58,1.04,5.49,1.24,3.37.35,6.66.08,9.88-.85,1.22-.35,2.41-.55,3.65-.47,3.47.24,6.73-.51,9.83-2.06.83-.41,1.44-.55,2.39.17,1.6,1.22,3.52.57,5.26,0,2.59-.85,4.7-2.5,6.65-4.36.59-.56.91-.94,1.57.02.75,1.1,1.82.25,2.66-.04.95-.32,1.8-.95,2.95-1.59Zm-47.38,28.64c.04-1.75-.42-3.55-1.59-5.14-1.28-1.74-3.08-2.13-5.05-1.77-1.93.35-3.2,1.51-3.73,3.49-.83,3.08-.73,5.97.8,8.9,1.88,3.61,5.93,2.99,7.6.75,1.33-1.79,1.98-3.8,1.97-6.22Zm39.16.58c.09-1.36-.2-2.63-.71-3.84-.98-2.32-2.97-3.75-4.87-3.57-2.19.2-4.25,1.95-4.8,4.28-.47,1.98-.6,4.01-.08,6,.53,2.03,1.65,3.71,3.53,4.68.53.27,1.12.62,2.07.26,3.7-1.42,4.52-4.42,4.87-7.81Zm-7.36-19.16c-.19.01-.4-.01-.58.04-1.1.3-2.25.68-2.16,2.09.09,1.39,1.3,1.18,2.25,1.27.71.07,1.42.13,2.12.24,1.94.33,3.42,1.46,4.8,2.8.45.44,1.03.83,1.75.36.59-.39.45-.86.24-1.37-.96-2.26-5.89-5.44-8.41-5.43Zm-33.2,2.08c-.16-1.51-1.26-1.75-2.26-1.96-2.43-.53-8.2,2.91-8.96,5.28-.16.51-.25,1.09.18,1.47.53.47,1.02,0,1.36-.34,2.29-2.27,4.94-3.51,8.23-3.19.96.09,1.4-.51,1.46-1.26Zm15.75,33.75c1.15-.14,2.24-.35,3.06-1.18.43-.43.61-1.02.21-1.6-.4-.57-1.04-.71-1.54-.31-1.27,1.02-2.45.94-3.71.01-.56-.41-1.09-.19-1.52.35-.54.65-.08,1.15.31,1.52.88.85,2.06,1.02,3.19,1.2Z"/><path class="cls-2" d="m82.06,21.99c-1.43,1.72-1.13,4.17-2.44,5.94-3.1-.19-6.2-.4-9.01-1.95,0,0,0,0,0,0-.1-.2-.17-.56-.3-.59-.42-.09-.42.3-.47.59,0,0,0,0,0,0-1.76.83-3.63.82-5.52.8-3.31-.04-6.58-.68-9.87-.77-8.04-.22-16.05-.22-24.1-.99-6.09-.58-12.4-1.36-18.6.1-1.15.27-2.65.51-3.51-.94,1.23-3.45,4.36-5.52,6.44-8.59-1.12-.23-2.02.44-2.87-.04-.03-.34.08-.6.39-.77,1.73-.67,3.31-1.65,5.22-1.91,2.69-.36,5.35-.92,8.02-1.39,1.65.18,3.3.36,5.14.56-.71-1.61-2.29-1.71-3.4-2.44-.6-.39-1.89-.2-1.8-1.06.09-.88,1.31-.83,2.1-1.04-.04.73.44.95,1,.84,1.48-.29,2.96,0,4.43-.02,1.5-.03,2.79-.63,3.72-1.83.38-.49.74-.91,1.4-.89,3.87.11,7.75.18,11.42,1.65-.64,1.12-1.86,1.56-2.84,2.24-1.81,1.26-2.64,3.18-3.71,4.95-.28.47-.2,1.04.26,1.43.49.41.8-.03,1.18-.28,1.47-.99,2.66-2.3,3.89-3.55.75-.76,1.53-1.42,2.68-1.4.28.34.66.37,1.06.38,3.1.03,6.15-.61,9.61-.35-1.38-1.85-2.79-3.11-4.57-4.55,1.76.09,2.97.51,4.21.82,5,1.26,9.42,3.9,14.11,5.9,1.27.16,1.61,1.34,2.32,2.11.84.92,1.34,2.2,2.71,2.54.78,1.42.79,3.14,1.7,4.51Z"/><path class="cls-3" d="m8.22,24.18c.86,1.45,2.36,1.21,3.51.94,6.2-1.47,12.51-.68,18.6-.1,8.05.77,16.06.77,24.1.99,3.29.09,6.56.72,9.87.77,1.89.02,3.76.03,5.52-.8-1.46,5-4.19,9.03-8.75,11.71-.34.2-.62.53-1.05.33-.54-.25-.35-.78-.39-1.21-.11-1.06.83-1.73,1.06-2.73-.93-.46-1.55.12-2.09.62-3.64,3.38-8.01,5.42-12.64,7.01-.58.2-1.33.77-1.76.06-.37-.6.46-.98.85-1.36.7-.67,1.51-1.23,2.22-1.89.63-.59,1.37-1.13,1.74-2.05-.8-.26-1.37.04-1.83.29-3.74,2.08-7.96,2.06-12.01,2.78-.98.17-2.04-.18-3.07-.2-3.85-.09-7.74.07-11.52-.24-2.13-.18-4.34.41-6.53-.4-1.45-.54-2.97.73-4.29,1.51-.83.5-1.63.76-2.56.71-.06-.97-.12-1.95-.17-2.92-.36-2.83-.36-5.66.06-8.49.39-.24.43-.5.04-.78-.08-1.62.12-3.18,1.09-4.55Z"/><path class="cls-3" d="m88.2,59.36c-.44.08-.8.29-.52.78.81,1.41-.06,2.51-.7,3.71-.04-1.75.23-3.49-.29-5.21-1.57-5.17-1.43-10.51-1.67-15.84-.14-3.13-.27-6.25-.3-9.38.89.01,1.72-.01,2.49.69,1.05.97,1.41.3,1.42-.81,0-1.28.02-2.56.04-3.84.66.3.61.95.7,1.51.58,3.42.44,6.86.15,10.3-.47.22-.61.48-.1.81l-.15,5.48c-.65.2-.81.46-.11.84,0,.23,0,.47,0,.7-.49.25-.54.7-.53,1.17.05,3.04-.84,6.04-.44,9.1Z"/><path class="cls-3" d="m45.9,102.57c1.23.39,1.61,1.82,1.43,2.47-.7,2.57.56,5.23-.73,7.83-.66,1.33-.81,3.09-1.1,4.67-.22,1.17-.93,1.72-2.11,1.4-1.41-.39-2.83-.63-4.24-1.15-1.92-.71-2.23-1.67-2.33-3.53-.19-3.37,1.43-6.44,1.28-9.76.69.08.73.6.81,1.13.2,1.38.94,2.2,2.39,2.24,0,0,0,0,0,0-.66.88-.36,1.87.1,2.56.51.78,1.59.45,2.37.3,1.18-.23,1.54-1.26,1.73-2.34.33-1.93.5-3.86.39-5.82Z"/><path class="cls-3" d="m58.43,103.36c1.98,4.15,4.04,8.27,3.58,13.11-.1,1.09-.18,1.67-1.51,1.93-2.22.42-4.41.27-6.61.22-1.43-.03-3.07-.49-3.2-2.24-.13-1.71,1.14-2.47,2.78-2.57.1,0,.19-.17.28-.25,1,.1,1.61-.15,2.08-1.24.78-1.81,1.42-3.65,1.39-5.6-.02-1.34.32-2.41,1.21-3.35Z"/><path class="cls-3" d="m70.6,25.98c2.81,1.55,5.91,1.76,9.01,1.95-1.2,2.09-2.8,3.81-4.68,5.32-2.31,1.85-4.43,3.94-7.2,5.16-.59.26-1.16.59-1.84.52h0c1.2-2.25,2.83-4.23,3.65-6.73.68-2.06,1.12-4.08,1.05-6.23Z"/><path class="cls-6" d="m89.16,49.1c0-.23,0-.47,0-.7.28-.25.29-.53.11-.84.05-1.83.1-3.65.15-5.48.3-.24.3-.51.1-.81.29-3.44.43-6.87-.15-10.3-.09-.56-.04-1.21-.7-1.51,0,0,0,.02,0,.02-.04-.38-.08-.76-.12-1.14-1.13-2.94-3.42-4.68-6.15-5.97-.12-.13-.23-.26-.35-.39-.92-1.37-.93-3.09-1.7-4.51-.2-2.01-1.21-3.83-1.42-5.86,1.79,2.08,2.58,4.63,3.04,7.24.21,1.21.7,1.84,1.72,2.33,5.36,2.6,7.84,6.87,7.8,12.87-.04,5.7-.7,11.33-1.33,16.97-.33-.64-.66-1.28-1-1.92Z"/><path class="cls-2" d="m41.3,107.87c-1.46-.04-2.2-.86-2.39-2.24-.08-.53-.12-1.05-.81-1.13,1-1.75.2-3.75.81-5.55.88-.03,1.7-.08,2.32.84.26.39.88,1.05,1.6.41,1.36.36,1.96,1.7,3.08,2.37.11,1.96-.06,3.89-.39,5.82-.19,1.08-.54,2.11-1.73,2.34-.78.15-1.85.48-2.37-.3-.46-.69-.77-1.68-.1-2.56.29.04.43.22.53.48.33.83,1.05.58,1.43.25.42-.37.11-.98-.18-1.41-.48-.69-.94-.55-1.33.12-.27.07-.44.23-.48.51l.02.04Z"/><path class="cls-1" d="m5.76,64.13c1.33,4.2,4.74,7.34,5.49,11.83.22,1.33.13,1.55-1.15,1.51-1.76-.06-3.13-.81-4.27-2.03-2.95-3.13-3.02-8.74-.07-11.31Z"/><path class="cls-1" d="m93.06,69.72c.02,4.18-3.03,7.72-6.68,7.81-1.07.03-1.45-.03-1.11-1.37,1.04-4.04,3.66-7.32,5.07-11.17.3-.82.72-.52,1.1,0,1.01,1.42,1.59,2.98,1.62,4.73Z"/><path class="cls-6" d="m75.32,12.83c-4.69-2-9.11-4.64-14.11-5.9-1.24-.31-2.45-.73-4.21-.82,1.78,1.45,3.19,2.7,4.57,4.55-3.46-.26-6.51.38-9.61.35-.4,0-.78-.04-1.06-.38,1.56-.36,3.13-.74,4.7-1.08.58-.12,1.35-.17,1.52-.69.23-.7-.55-1.11-1.02-1.51-.59-.5-1.3-.85-1.91-1.33-.33-.26-.87-.5-.66-1.07.16-.45.59-.74,1.05-.79.57-.06,1.17-.05,1.73.05,4.48.78,8.83,1.92,12.9,4.06,1.83.96,3.85,1.54,5.35,3.07.4.41.91.78.77,1.48Z"/><path class="cls-2" d="m58.43,103.36c-.88.94-1.23,2.01-1.21,3.35.03,1.95-.61,3.79-1.39,5.6-.47,1.09-1.08,1.34-2.08,1.24-.43-.6-.47-1.27-.39-1.96-.09-1.03-.82-2.38,1.44-1.78.91.24,1.24-.71.32-1.45.04-.45.1-.91-.25-1.29-.34-1.86-1.81-.6-2.69-.98,0-.52,0-1.04-.01-1.57.32-.15.63-.3.95-.44.72.37,1.5.66,1.86-.36.26-.73.28-1.55-.86-1.64.35-.47.46-1.01.03-1.42-1.58-1.5-.71-2.73.33-4.01.49-.61.94-1.25,1.63-1.65,0,.94-.12,1.88.73,2.63.76.67.86,1.66.94,2.61-.31,1.15.31,2.1.65,3.11Z"/><path class="cls-2" d="m82.41,22.38c2.73,1.29,5.01,3.03,6.15,5.97-.32.06-.63.13-.64.54,0,.51.37.58.76.6,0,0,0-.02,0-.02-.01,1.28-.03,2.56-.04,3.84,0,1.11-.36,1.78-1.42.81-.77-.71-1.6-.68-2.49-.69.1-1.63.09-3.08-2.19-1.71-.46.27-1.09-.04-.84-.59,1.25-2.75.45-5.59.55-8.39,0-.12.1-.24.16-.35Z"/><path class="cls-6" d="m8.22,24.18c-.97,1.37-1.18,2.92-1.09,4.55-.28.25-.31.5-.04.78-.42,2.83-.43,5.66-.06,8.49-.94.66-.44,1.67-.6,2.52-.12.63.28,1.55-.9,1.57-.12-3.71-.26-7.43-.37-11.14-.14-4.79,1.28-8.97,4.81-12.33.89-.84.54-2.44,1.82-3.06.86.48,1.75-.19,2.87.04-2.08,3.07-5.21,5.14-6.44,8.59Z"/><path class="cls-6" d="m49.45,7.25c-3.68-1.47-7.55-1.54-11.42-1.65-.66-.02-1.02.4-1.4.89-.93,1.2-2.22,1.8-3.72,1.83-1.48.03-2.95-.26-4.43.02-.57.11-1.04-.11-1-.84,1.81-.2,3.61-.35,5.43-.12.96.12,1.6-.12,1.04-1.28-.45-.93.13-1.35.85-1.6.73-.25,1.5-.48,2.26-.5,4.3-.14,8.51.36,12.49,2.11.29.13,1.1-.15.89.64-.11.42-.58.47-.98.49Z"/><path class="cls-3" d="m57.78,100.25c-.08-.96-.18-1.95-.94-2.61-.85-.75-.72-1.69-.73-2.63,1.08-.5,1.2.5,1.63,1.03.22.63.7,1.08,1.18,1.5,3.06,2.65,5.34,5.92,7.5,9.29-2.63-.7-5.07-1.66-6.57-4.18-.54-.9-.79-2.11-2.06-2.4Z"/><path class="cls-1" d="m52.33,92.87c-.84,1.85-2.32,3.21-1.55,5.29.26.71-.63.81-1.19.97-.99.29-1.84.13-2.32-.86-.86-1.73-1.67-3.49-2.58-5.4h7.64Z"/><path class="cls-1" d="m42.03,134.42c.78,0,1.55.01,2.33,0,.57-.01,1.27-.23,1.53.46.27.72-.08,1.4-.59,1.94-1.28,1.34-6.02,1.31-7.27-.05-.39-.43-.78-.94-.54-1.57.24-.62.81-.79,1.42-.79,1.04,0,2.07,0,3.11,0,0,0,0,.01,0,.02Z"/><path class="cls-5" d="m56.03,134.35c.78,0,1.56-.01,2.33,0,.56.01,1.23-.18,1.49.57.27.77-.06,1.42-.6,1.93-1.31,1.27-5.84.96-7.09-.4-.42-.45-.44-.93-.34-1.43.11-.57.65-.6,1.09-.61,1.04-.03,2.07-.01,3.11-.01,0-.01,0-.03,0-.04Z"/><path class="cls-1" d="m55.81,126.49c-1.76.11-3.49-.13-5.22-.44-.45-.08-1.05-.13-1.04-.66,0-.69.67-.41,1.06-.44,2.91-.23,5.81-.44,8.72-.64.45-.03,1.11-.47,1.19.41.07.74-.05,1.48-1.03,1.55-1.23.09-2.46.14-3.69.21Z"/><path class="cls-6" d="m25.42,11.48c-2.67.47-5.34,1.03-8.02,1.39-1.91.26-3.49,1.24-5.22,1.91-.21-2.03.85-3.06,2.73-3.35,3.5-.53,7.01-.62,10.52.04Z"/><path class="cls-1" d="m42.2,124.94c1.37,0,2.74-.02,4.11.01.39,0,1.02-.24,1.07.47.03.46-.41.61-.81.7-2.98.64-5.97.36-8.96.16-.73-.05-.74-.61-.71-1.15.05-.72.55-.56,1-.53,1.43.09,2.86.16,4.3.23v.11Z"/><path class="cls-1" d="m41.68,131.14c.97,0,1.94,0,2.91,0,.58,0,1.03.2,1.06.86.03.71-.33,1.08-1.06,1.08-1.94-.02-3.88-.03-5.82-.07-.64-.01-1.2-.27-1.09-1.03.1-.66.59-.9,1.28-.86.9.06,1.81.01,2.72.02Z"/><path class="cls-2" d="m5.52,42.09c1.18-.02.78-.94.9-1.57.16-.85-.34-1.86.6-2.52.06.97.11,1.95.17,2.92-.18,4.47.07,8.91.69,13.33-.39,0-.78,0-1.18,0,.03-3.33-.92-6.53-1.19-9.82-.06-.77,0-1.56,0-2.34Z"/><path class="cls-1" d="m55.81,132.99c-1.03-.05-2.07-.1-3.1-.16-.48-.03-.91-.12-.93-.74-.03-.64.3-1.02.9-1.03,2.07-.03,4.14-.03,6.21-.01.62,0,.69.49.67.97-.02.54-.09,1.05-.83,1.04-.97-.02-1.94,0-2.91,0,0-.02,0-.04,0-.06Z"/><path class="cls-1" d="m28.55,111.57c.24-.46-.44-1.46.74-1.54,1.47-.1,3.73,1.71,3.72,2.92,0,1.17-.34,2.07-1.72,2.08-1.56,0-2.74-1.45-2.74-3.45Z"/><path class="cls-1" d="m64.82,112.89c0-1.31,1.65-2.75,3.21-2.88.98-.08,1.06.52,1.08,1.21.06,1.73-1.35,3.55-2.72,3.51-.9-.02-1.57-.81-1.57-1.85Z"/><path class="cls-1" d="m42.04,128.04c.66,0,1.77,0,2.88,0,.4,0,.83.04.92.52.11.57-.28.87-.76.94-2.34.31-4.68.2-7.03.05-.56-.04-.72-.5-.59-1.02.12-.53.47-.71,1.01-.67,1.04.08,2.08.11,3.57.19Z"/><path class="cls-3" d="m49.7,121.5c2.52-1.35,5.32-.6,7.95-1.2,1.31-.3,2.71-.21,3.9-.97.28-.18.62-.35.89-.08.4.41-.06.67-.26.97-.7,1.06-1.87.83-2.85.93-3.19.35-6.39.94-9.64.35Z"/><path class="cls-5" d="m55.64,129.52c-.74,0-1.49,0-2.23,0-.15-.22-.33-.24-.54-.08-1.06.12-1.27-.46-1.09-1.35.55-.13,1.17.52,1.69-.13,1.42-.05,2.84-.15,4.26-.12.81.02,2.16-.44,2.13.92-.03,1.46-1.36.64-2.14.77-.69-.4-1.38-.38-2.08-.01Z"/><path class="cls-6" d="m66.42,106.83c-2.16-3.37-4.44-6.65-7.5-9.29-.49-.42-.96-.87-1.18-1.5,2.15.6,3.34,2.38,4.72,3.9,2.05,2.27,3.82,4.74,5.24,7.55-.77.26-.89-.44-1.28-.66Z"/><path class="cls-2" d="m31.02,107.3c-.86-.08-.94-.6-.61-1.23.42-.79.65-1.7,1.35-2.33,1.04.02,1.39-.78,1.83-1.5,1.11-1.82,2.31-3.57,3.94-4.98,1.32,1.87-1.03,2.18-1.41,3.33-1.7,2.23-3.4,4.47-5.11,6.7Z"/><path class="cls-3" d="m31.02,107.3c1.7-2.23,3.4-4.47,5.11-6.7,1.6,1.17-.03,2.19-.43,2.88-.66,1.11-1.6,2.11-2.4,3.18-.47.63-1.25,1.41-2.28.64Z"/><path class="cls-2" d="m89.16,49.1c.33.64.66,1.28,1,1.92-.24,2.88-.7,5.71-1.96,8.34-.4-3.06.48-6.05.44-9.1,0-.47.04-.92.53-1.17Z"/><path class="cls-3" d="m52.18,106.09c.88.38,2.35-.88,2.69.98-.48.11-1.17-.34-1.39.49-.09.32-.07.65.19.89.51.48,1,.49,1.46-.09.93.74.6,1.69-.32,1.45-2.26-.61-1.53.74-1.44,1.78-.9.05-1.6-.22-1.56-1.26.06-1.41-.34-2.88.38-4.23Z"/><path class="cls-6" d="m37.53,97.27c-1.63,1.41-2.84,3.15-3.94,4.98-.44.72-.79,1.52-1.83,1.5,1.77-3.02,3.64-5.95,6.65-8.31.07,1.02-.75,1.25-.88,1.84Z"/><path class="cls-3" d="m34.83,119.26c2.71,1.3,5.7,1.38,8.6,1.88-4.28,1.13-8.58.18-8.6-1.88Z"/><path class="cls-6" d="m42.82,100.19c-.72.64-1.34-.02-1.6-.41-.62-.92-1.44-.87-2.32-.84.25-.75.5-1.49.75-2.24.29-.2.4-.48.38-.82.12-.15.24-.31.36-.46.11.07.23.1.35.08.24,1.76.64,3.45,2.07,4.68Z"/><path class="cls-1" d="m54.12,102.09c1.14.09,1.12.91.86,1.64-.37,1.02-1.14.72-1.86.36.05-.58.11-1.17.16-1.75.28-.08.56-.16.84-.24Z"/><path class="cls-2" d="m40.76,95.51c-.13.01-.24-.01-.35-.08.18-.86.74-.96,1.25-.42,1.08,1.16,2.04,2.42,3.4,4.04-2.42-.61-2.77-2.75-4.29-3.54Z"/><path class="cls-6" d="m48.66,130.1c.61,1.58.5,3.19.1,4.82-.76-1.56-.43-3.19-.1-4.82Z"/><path class="cls-3" d="m50.93,104.97c-.35.49-.11,1.47-1.13,1.49-.25,0-.64-.2-.4-.4.69-.59-.07-1.82.92-2.1.45-.13.66.47.61,1.01Z"/><path class="cls-3" d="m53.28,102.33c-.05.58-.11,1.17-.16,1.75-.32.15-.63.3-.95.44-.41-1.13-1.24-2.47,1.11-2.2Z"/><path class="cls-3" d="m6.71,54.25c.39,0,.78,0,1.18,0-.08.82.19,1.68-.3,2.68-.66-.87-.84-1.75-.87-2.69Z"/><path class="cls-2" d="m49.84,110.43c-.11.83.2,1.74-.46,2.87-.53-1.28-.3-2.29-.34-3.26.33,0,.62.09.8.39Z"/><path class="cls-3" d="m49.84,110.43c-.18-.31-.47-.4-.8-.39.04-.43-.11-.98.52-1.11.44-.08.77.18.92.57.21.57-.08.86-.64.93Z"/><path class="cls-6" d="m53.47,127.96c-.51.66-1.13,0-1.69.13.5-.79,1.11-.31,1.69-.13Z"/><path class="cls-6" d="m55.64,129.52c.69-.37,1.39-.38,2.08.01-.69.28-1.39.28-2.08-.01Z"/><path class="cls-3" d="m69.82,25.98c.05-.29.05-.68.47-.59.14.03.2.38.3.59-.26,0-.52,0-.78,0Z"/><path class="cls-3" d="m48.41,104.24c.05-.11.07-.28.15-.31.08-.03.27.06.3.13.03.08-.08.21-.13.32-.11-.05-.22-.1-.33-.14Z"/><path class="cls-2" d="m40.04,95.89c.02.34-.09.63-.38.82-.05-.36.03-.65.38-.82Z"/><path class="cls-6" d="m52.88,129.45c.21-.16.39-.15.54.08-.21.18-.39.14-.54-.08Z"/><path class="cls-3" d="m65.9,38.94c-.03.05-.06.11-.09.16.03-.06.06-.11.09-.17,0,0,0,0,0,0Z"/><path class="cls-4" d="m34.13,65.1c0,2.42-.64,4.43-1.97,6.22-1.66,2.24-5.71,2.87-7.6-.75-1.53-2.94-1.63-5.82-.8-8.9.53-1.97,1.79-3.13,3.73-3.49,1.97-.36,3.77.03,5.05,1.77,1.17,1.59,1.62,3.39,1.59,5.14Zm-3.88-2.63c-.11-.63-.3-1.42-1.13-1.52-.86-.1-1.05.66-1.04,1.33,0,.7.33,1.28,1.11,1.37.76.08,1.02-.41,1.06-1.18Z"/><path class="cls-4" d="m73.29,65.68c-.34,3.39-1.16,6.39-4.87,7.81-.95.36-1.54.02-2.07-.26-1.88-.97-3-2.65-3.53-4.68-.52-2-.4-4.03.08-6,.55-2.32,2.62-4.07,4.8-4.28,1.91-.18,3.9,1.25,4.87,3.57.51,1.21.8,2.48.71,3.84Zm-4.96-4.34c-.64.03-.93.6-.96,1.16-.04.78.45,1.44,1.23,1.49.74.05.83-.65.84-1.28,0-.72-.12-1.31-1.1-1.38Z"/><path class="cls-3" d="m65.93,46.52c2.52-.02,7.45,3.16,8.41,5.42.21.5.35.98-.24,1.37-.72.47-1.3.08-1.75-.36-1.38-1.33-2.85-2.47-4.8-2.8-.7-.12-1.41-.18-2.12-.24-.95-.09-2.15.12-2.25-1.27-.09-1.41,1.06-1.79,2.16-2.09.18-.05.39-.03.58-.04Z"/><path class="cls-3" d="m32.73,48.6c-.06.75-.5,1.36-1.46,1.26-3.29-.32-5.94.92-8.23,3.19-.33.33-.83.81-1.36.34-.43-.38-.34-.96-.18-1.47.76-2.37,6.53-5.81,8.96-5.28,1,.22,2.1.45,2.26,1.96Z"/><path class="cls-3" d="m48.48,82.35c-1.13-.18-2.31-.35-3.19-1.2-.39-.37-.84-.87-.31-1.52.44-.53.96-.75,1.52-.35,1.26.92,2.44,1.01,3.71-.01.5-.4,1.13-.26,1.54.31.41.58.22,1.16-.21,1.6-.82.83-1.92,1.03-3.06,1.18Z"/><path class="cls-2" d="m7.08,29.51c-.27-.28-.24-.54.04-.78.38.28.35.54-.04.78Z"/><path class="cls-2" d="m89.28,47.56c.18.31.16.59-.11.84-.69-.38-.53-.64.11-.84Z"/><path class="cls-2" d="m89.52,41.27c.21.3.2.57-.1.81-.52-.34-.37-.59.1-.81Z"/><path class="cls-1" d="m41.76,107.32c.39-.67.85-.8,1.33-.12.3.42.61,1.04.18,1.41-.38.33-1.1.58-1.43-.25-.11-.26-.25-.44-.53-.48,0,0,0,0,0,0s-.02-.04-.02-.04c.32-.02.5-.17.48-.51Z"/><path class="cls-3" d="m88.68,29.49c-.39-.02-.77-.09-.76-.6,0-.41.32-.48.64-.54.04.38.08.76.12,1.14Z"/><path class="cls-3" d="m41.76,107.32c.03.34-.16.49-.48.51.04-.28.21-.44.48-.51Z"/><path class="cls-1" d="m55.11,108.36c-.45.58-.95.57-1.46.09-.26-.24-.27-.57-.19-.89.23-.83.91-.37,1.39-.49.35.38.28.84.25,1.29Z"/><path class="cls-1" d="m30.25,62.47c-.03.77-.3,1.26-1.06,1.18-.78-.08-1.1-.67-1.11-1.37,0-.67.17-1.43,1.04-1.33.83.1,1.01.88,1.13,1.52Z"/><path class="cls-1" d="m68.33,61.35c.98.07,1.11.66,1.1,1.38,0,.62-.1,1.32-.84,1.28-.78-.05-1.27-.71-1.23-1.49.03-.56.32-1.13.96-1.16Z"/><path class="cls-3" d="m47.95,122.13c-.75,4.57-.36,8.8-.47,13.02-.03,1.32-1.02,2.15-2.18,2.69-4.18,1.95-9.21-.66-9.22-4.71,0-1.71,0-3.42,0-5.14,0-3.52.33-3.84,4.43-4.09,1.34-.08,2.74.14,4.01-.12,1.09-.23,2.04-.96,3.43-1.65Z"/><path class="cls-3" d="m61.85,121.83c-.81,4.65-.39,8.95-.5,13.24-.04,1.34-1.1,2.18-2.36,2.74-4.52,1.98-9.95-.67-9.96-4.79,0-1.74,0-3.48,0-5.22,0-3.58.36-3.9,4.79-4.16,1.44-.08,2.96.14,4.33-.13,1.18-.23,2.21-.98,3.7-1.68Z"/></g></svg>