<?xml version="1.0" encoding="UTF-8"?><svg id="Layer_2" xmlns="http://www.w3.org/2000/svg" viewBox="0 0 232.48 233.43"><defs><style>.cls-1{fill:#231f20;font-family:MMSchoolRD-Regular, MMSchoolRD;font-size:30px;}.cls-2{opacity:.5;}.cls-3{fill:#292528;}.cls-3,.cls-4,.cls-5,.cls-6,.cls-7,.cls-8,.cls-9{stroke-width:0px;}.cls-4{fill:#3d3739;}.cls-5{fill:#1c1a19;}.cls-6{fill:#e0dad1;}.cls-7{fill:#938a85;}.cls-8{fill:#f2d58c;}.cls-9{fill:#fbf9f6;}</style></defs><g id="Layer_1-2"><ellipse class="cls-8" cx="116.24" cy="116.72" rx="116.24" ry="116.72"/><g class="cls-2"><path class="cls-5" d="m101.19,175.18c.3-1.21,0-2.21-1.06-2.9-2.29-1.47-3.05-3.67-2.89-6.23.05-.84-.04-1.11-.94-1.2-4-.38-6.31-2.82-6.56-6.87-.07-1.17.05-2.35.09-3.53.63-1.64,1.22-3.29,1.9-4.91.37-.88.29-1.23-.77-1.41-5.92-1.02-11.75-2.38-17.46-4.28-3.93-1.88-7.62-4.07-10.32-7.65-4.69-6.22-5.6-13.32-4.14-20.62,1.42-7.09,3.3-14.13,5.51-21.02,2.41-7.51,4.5-15.14,7.76-22.37,4.16-9.23,11.1-15.74,19.98-20.1,15.33-7.52,30.74-6.88,46.04.28.71.33,1.44.63,2.16.94.35.29.66.62,1.04.85,8.59,5.24,14.7,12.55,18.3,21.97,5.25,13.74,9.41,27.84,13.44,41.97,1.58,5.56.88,10.94-1.99,15.77-2.23,3.74-5.72,6.43-9.75,8.26-6.78,3.08-13.9,4.99-21.23,6.13-2.35.36-2.33.31-1.48,2.44.96,2.38,1.69,4.83,1.42,7.45-.41,3.87-2.31,6.82-6.31,6.75-1.24-.02-.98.8-.95,1.46.14,2.59-.69,4.65-3.08,5.89-.77.4-.84,1.08-.87,1.83-.09,2.43-.21,4.87-.29,7.3-.05,1.53-.55,2.79-1.76,3.8-3.5,2.92-9.82,1.49-11.68-2.67v-10.45c-.27,0-.54,0-.8,0v10.83c-.43,1.6-1.55,2.62-3.03,3.07-1.82.56-3.71.71-5.62.32-3.22-.65-4.43-2.15-4.46-5.42-.02-1.89.26-3.8-.19-5.67Zm25.53-36.16s-.03-.1-.06-.13c-.01-.02-.06-.01-.1-.01.06.04.12.08.18.12-.12.56-.01,1.04.49,1.38.11.33.22.65.33.98.88,3.86,1.78,7.72,2.62,11.6.24,1.09.64.66,1.16.28.72-.52,1.07-1.52,2.11-1.61,1.34.63.48,1.48-.06,2.4.78-.2,1.26-.4,1.75-.43,1.04-.07,1.17-.41.73-1.37-2.15-4.65-4.45-9.18-8.34-12.66-.13-.4-.44-.53-.83-.53Zm42.21-10.21c1.35-3.2,1.79-6.4.28-10.22-.64,2.55-.76,4.55-.77,6.56-1.36.88-1,2.6-1.84,3.78-.89,1.25-1.48,2.73-2.2,4.11-.27.52-.27,1.02.23,1.39.43.32.95.27,1.23-.13,1.19-1.73,3.07-3.08,3.07-5.48Zm-66.64,10.99c-.65.28-1.3.55-1.73,1.17-2.4,3.42-4.7,6.9-6.3,10.79-.51,1.25-.22,1.85,1.13,1.9.81,1.01,2.09,1.01,3.15,1.47.67.29.88-.14,1.03-.75.72-2.93,1.49-5.85,2.25-8.77.72-2.4,1.43-4.79,2.18-7.31-.97.18-1.37.81-1.71,1.5Zm17.25,1.02c-2.42,1.39-2.63,1.76-1.88,4.39.81,2.85,1.23,5.75,1.57,8.69.43,3.73-.15,3.49,3.84,2.87.84-.13,1.69-.24,2.53-.33,1.41-.15,2.05-.76,1.76-2.31-.83-4.44-1.48-8.91-2.94-13.2-.11-1.1-.21-2.21-.33-3.31-.04-.38-.04-.84-.54-.93-.37-.07-.59.22-.76.51-.85,1.42-2.16,2.42-3.25,3.62Zm46.6-23.19c-.02-2.81-.04-5.61-.06-8.42,0-.98-.04-1.93-.31-2.92-1.5-5.42-3.32-10.74-5.1-16.06-1.28-3.83-2.43-7.73-4.04-11.41-1.48-3.37-2.68-6.89-4.88-9.95-5.92-8.28-13.97-13.42-23.57-16.24-8.9-2.61-17.87-2.67-26.76-.02-11.99,3.58-20.97,10.81-25.9,22.53-1.96,4.67-3.49,9.53-5.02,14.38-2.89,9.17-5.79,18.33-7.98,27.71-.68.45-.42,1.16-.44,1.77-.07,2.06.02,4.12.41,6.15.26,2.53,1.55,4.7,2.52,6.98.33.78.68,1.75,1.72,1.63,1.05-.12,1.44-1.11,1.62-2.02.28-1.44-.16-2.86-.32-4.29-.06-.55-.91-1.36.04-1.65.71-.22.62.82.91,1.28.94,1.51,1.95,3.18,3.74,3.54,2.66.54,5.38.71,7.83-1.1.92-.68,1.04-1.23.52-2.1-.39-.66-1.06-1.76-.45-2.03.95-.42,1.18.87,1.58,1.56.06.11.07.26.14.37.37.6.95.82,1.5.43.62-.44.13-.91-.19-1.33-.99-1.3-2.13-2.52-2.92-3.94-.72-1.3-1.62-1.66-3-1.7-4.99-.14-8.07-3.01-10.28-7.25-.66-1.26-.14-2.76-1.14-3.85.43-3.69,1.52-7.2,2.9-10.62.89.21,1.12,1.58,2.42,1.19,2.24-.66,4.61-.94,6.8-1.75,5.94-2.2,10.98-5.79,15.09-10.63,4-4.73,8.3-9.1,13.92-11.89,2.36-1.17,4.81-2.15,7.56-2.03-.96.8-1.99,1.45-3.04,2.06-5.12,2.96-10,6.2-13.69,11-1.79,2.33-3.7,4.63-5.87,6.6-2.36,2.14-4.9,4.15-7.78,5.62-.4.2-.9.38-.76.99.14.63.64.81,1.2.8.99-.02,2.01.42,2.89.31,1.73-.23,3.55.46,5.15-.27,7.37-3.35,14.54-7.02,21.23-11.68,7.56-5.27,14.24-11.28,19.09-19.2.65-1.71,1.3-3.41,1.94-5.13.16-.43.23-1.08.77-.96.75.16.41.83.29,1.29-.65,2.56-.12,4.57,1.95,6.48,4.75,4.38,8.04,9.92,11.31,15.44,1.85,3.12,3.19,6.47,4.17,10.09.73-.68.48-1.37.46-1.98-.17-7.24-2.14-14.18-3.67-21.19-.27-1.23-.96-2.48-.22-3.79,1.97,2.82,3.27,5.96,4.32,9.21.14,2.99,1.41,5.69,2.21,8.51.87,3.09,1.49,6.25,1.59,9.44.04,1.1.14,1.79.96,2.48,2.47,2.06,3.94,4.63,3.9,7.96-.02,1.9.06,3.8-.42,5.67-1.61,2.64-3.45,5.04-6.32,6.44-.53.26-.55.9-.67,1.37-1.25,5.15-3.84,9.34-8.38,12.26-.72.46-2.12,1.28-1.32,2.23.79.95,1.48,2.71,3.34,2.12.66-.21,1.3.04,1.88-.04,2.72-.37,5.6-.38,7.39-3.12,1.31-2.01,2.93-3.77,4.08-5.93,1.92-3.6,2.7-7.43,3.15-11.39Zm-50.83,12.76c4.79-.02,9.59.17,14.35-.51,5.46-.78,10.73-2.18,14.72-6.3,6.45-6.65,7.87-14.65,6-23.53-2.07-9.83-8.2-17.31-14.04-24.99-.58-.77-.96-.65-1.47.08-.82,1.18-1.67,2.36-2.61,3.45-8.58,9.96-19.18,17.21-30.94,22.83-1.18.56-1.53.95-1.12,2.28.58,1.9.47,3.91.03,5.86-.56,2.48-2.62,4.43-4.81,4.57-1.95.12-3.72-1.31-4.68-3.83-.25-.67-.53-1.37-.59-2.07-.13-1.45-.46-1.97-2.14-1.42-2.22.72-4.6,1.12-6.93,1.32-1.88.16-2.28.85-1.65,2.48.14.37.23.75.32,1.13,2.35,10.02,8.56,15.91,18.68,17.73,5.6,1.01,11.23.92,16.87.91Zm-2.35,26.92s0-.07.01-.11c.59,0,1.18-.04,1.77,0,1.2.09,1.68-.09,1.47-1.61-.26-1.93-.08-3.94-.52-5.86-.73-3.19-1.36-6.49-4.1-8.7-1.23-1-2.43-1.98-3.33-3.31-.3-.44-.66-1.14-1.35-.93-.53.17-.59.81-.69,1.33-1.13,5.7-2.24,11.41-3.39,17.11-.15.75-.03,1.12.78,1.19,3.12.28,6.23.59,9.35.88Zm5.49,20.64c0,.95.07,1.75-.01,2.53-.18,1.8.98,2.49,2.39,2.78,2.37.48,3.87-.19,4.44-1.78,1.53-4.21-.49-7.91-4.79-8.79-.82-.17-1.33.09-1.66.94-.57,1.48-.27,2.99-.37,4.32Zm-6.82-5.76c-.81.48-1.37.99-2.01,1.14-.75.18-1.57.03-2.35.09-2.41.17-2.6.39-2.6,2.83,0,1.19,0,2.37,0,3.56,0,2.8,2.96,4.61,5.41,3.26.68-.38,1.26-.95,1.28-1.86.06-2.92-.17-5.85.27-9.02Zm48.25-63.15c-.21-1.61-.55-3.47-1.88-4.96-.8-.9-1.43-1.35-1.91.38-1.09,3.9-2.32,7.76-3.56,11.61-.46,1.42.49,1.06,1.13,1,3.36-.34,6.24-3.94,6.22-8.02Zm-38.42,60.03c2.16,0,4.27-.58,6.45-.45.92.05,1.71-.44,1.57-1.56-.17-1.43.65-3.07-.85-4.21-.17-.13-.54-.11-.76-.02-2.66,1.14-5.47,1.1-8.28,1.1-.81,0-1.39.22-1.51,1.16-.36,2.73.69,3.98,3.39,3.99Zm-48.09-60.46c-.79,0-1.45,0-2.11,0-.5,0-.84.11-.87.76-.19,3.43,3.17,7.42,6.56,7.8.93.1,1.21-.06.89-1.03-.59-1.8-1.18-3.61-1.61-5.46-.39-1.7-.98-2.87-2.87-2.08Zm79.05,12.01c-.53-.17-1.2-.42-1.47.09-1.09,2.05-2.99,3.48-4.09,5.48-.73,1.33.72,2.04,1.29,2.89.55.82,1.23.03,1.76-.46,1.54-1.43,2.88-3.01,3.94-4.84,1.7-2.93,1.74-2.91-1.42-3.16Zm-37.59,40.72c2.32-.11,4.81-.17,7.29-.36,1.5-.11,2.98-.4,4.46-.67.5-.09,1.09-.32.94-1.01-.1-.5-.56-.41-.96-.34-7.62,1.24-15.24,1.32-22.89.24-.42-.06-1.04-.36-1.15.29-.15.86.64.82,1.19.92,3.62.68,7.29.76,11.12.93Zm22.12-4.29c.2-1.48-.52-1.52-1.84-.71-.82.51-1.73.89-2.6,1.33-.63.31-1.39.52-1.36,1.44.03.86.48,1.48,1.21,1.88.87.48,1.78.87,2.76.28,1.46-.89,1.75-2.34,1.83-4.22Zm-43.94-.12c0,2.14.62,3.49,2.2,4.28,1.39.7,2.49.09,3.2-1.02.79-1.26,0-2.08-1.16-2.6-.95-.43-1.95-.73-2.85-1.24-1.36-.78-1.4.02-1.39.59Zm27.18-23.16c-3.27,0-6.07,0-8.86,0-.17,0-.33.12-.52.2,4.72,5.58,4.58,4.6,8.53.71.17-.17.33-.36.84-.92Z"/><path class="cls-6" d="m115.3,130.4c-5.64,0-11.28.09-16.87-.91-10.12-1.82-16.33-7.71-18.68-17.73-.09-.38-.18-.77-.32-1.13-.63-1.63-.23-2.32,1.65-2.48,2.34-.2,4.71-.59,6.93-1.32,1.69-.55,2.01-.03,2.14,1.42.06.7.34,1.4.59,2.07.96,2.53,2.72,3.96,4.68,3.83,2.19-.14,4.25-2.09,4.81-4.57.44-1.96.55-3.96-.03-5.86-.41-1.33-.06-1.72,1.12-2.28,11.76-5.62,22.35-12.87,30.94-22.83.94-1.09,1.79-2.27,2.61-3.45.51-.73.88-.85,1.47-.08,5.84,7.67,11.97,15.15,14.04,24.99,1.87,8.88.45,16.88-6,23.53-3.99,4.11-9.26,5.52-14.72,6.3-4.76.68-9.56.49-14.35.51Zm25.25-24.21c.07-1.15-.18-2.27-.61-3.28-.79-1.87-1.96-3.46-4.22-3.66-2.1-.19-3.7.69-4.8,2.46-1.83,2.96-1.34,8.38.97,10.97,1.8,2.02,4.29,2.09,6.2.18,1.84-1.85,2.25-4.22,2.46-6.66Zm-6.75-18.66c-1.29,0-2.54.1-2.78,1.61-.21,1.26.8,1.75,1.83,1.84,3.26.28,6.03,1.54,8.23,3.98.47.52,1,.65,1.55.23.59-.45.45-1.11.12-1.6-2.18-3.22-5.15-5.27-8.94-6.06Zm-19.06,36.35c1.59-.06,3.17-.38,4.31-1.77.48-.59.81-1.25.19-1.94-.55-.62-1.19-.43-1.78-.08-1.83,1.1-3.68,1.25-5.55.12-.61-.37-1.22-.51-1.76.1-.65.73-.21,1.44.25,1.94,1.12,1.23,2.62,1.65,4.35,1.64Z"/><path class="cls-3" d="m133.41,70.18c-4.85,7.91-11.53,13.92-19.09,19.2-6.69,4.67-13.86,8.34-21.23,11.68-1.61.73-3.42.05-5.15.27-.88.12-1.9-.33-2.89-.31-.56.01-1.06-.17-1.2-.8-.14-.61.37-.79.76-.99,2.88-1.47,5.42-3.47,7.78-5.62,2.17-1.97,4.08-4.26,5.87-6.6,3.68-4.8,8.56-8.03,13.69-11,1.05-.61,2.08-1.26,3.04-2.06-2.76-.13-5.21.86-7.56,2.03-5.62,2.79-9.92,7.16-13.92,11.89-4.1,4.84-9.15,8.43-15.09,10.63-2.18.81-4.55,1.08-6.8,1.75-1.3.39-1.53-.99-2.42-1.19.33-1.46.53-2.97,1.02-4.37,1.61-4.62,3.57-9.13,4.93-13.82,1.75-6.04,4.85-11.2,8.99-15.82.9,1.58,2.33,1.84,3.96,1.6.1.82.45.71,1.03.37,1.14-.68,2.24-1.52,3.66-1.56,1.78.73,3.73.32,5.56.96,3.9,1.37,7.9,2.06,12.08,1.88,2.04-.09,4.18.29,6.16.88,5.55,1.64,11.18,1.19,16.82,1.02Z"/><path class="cls-4" d="m88.09,66.65c-1.63.25-3.06-.01-3.96-1.6,1.86-2.61,4.48-4.27,7.17-5.88,10.21-6.07,21.11-7.85,32.73-5.54,6.23,1.24,12.01,3.5,17.18,7.23,3.64,2.63,6.95,5.59,9.19,9.57-.74,1.31-.05,2.55.22,3.79,1.52,7.01,3.5,13.94,3.67,21.19.01.6.27,1.3-.46,1.98-.98-3.62-2.32-6.97-4.17-10.09-3.27-5.52-6.56-11.05-11.31-15.44-2.07-1.91-2.6-3.92-1.95-6.48.12-.47.46-1.14-.29-1.29-.54-.11-.61.54-.77.96-.63,1.71-1.29,3.42-1.94,5.13-5.64.18-11.27.62-16.82-1.02-1.98-.58-4.12-.96-6.16-.88-4.19.18-8.19-.51-12.08-1.88-1.82-.64-3.78-.23-5.56-.96,4.72-3.29,10.27-4.3,15.69-5.45,4.79-1.01,9.73-1.04,14.64-.89,1.57.05,3.15,0,4.73,0-3.54-1.43-7.18-2-10.91-1.99-2.68,0-5.34.05-8.02.35-3.27.37-6.39,1.18-9.48,2.26-4.27,1.49-7.83,4.15-11.34,6.89Z"/><path class="cls-7" d="m150.41,70.44c-2.24-3.99-5.56-6.94-9.19-9.57-5.17-3.73-10.95-5.99-17.18-7.23-11.62-2.31-22.52-.53-32.73,5.54-2.7,1.6-5.31,3.26-7.17,5.88-4.14,4.62-7.23,9.78-8.99,15.82-1.36,4.69-3.32,9.2-4.93,13.82-.49,1.41-.69,2.91-1.02,4.37-1.39,3.43-2.48,6.93-2.9,10.62-1.39,2.43-2.34,4.99-2.3,7.84-.71,1.04-1.2.89-1.48-.29,2.19-9.37,5.09-18.54,7.98-27.71,1.53-4.85,3.05-9.71,5.02-14.38,4.93-11.73,13.91-18.95,25.9-22.53,8.9-2.66,17.86-2.59,26.76.02,9.61,2.82,17.65,7.95,23.57,16.24,2.19,3.06,3.4,6.58,4.88,9.95,1.61,3.69,2.76,7.58,4.04,11.41,1.78,5.33,3.61,10.64,5.1,16.06.27.98.32,1.93.31,2.92-1.53-1.34-1.53-3.33-2.14-5.05-2.55-7.26-5.06-14.53-7.69-21.76-.34-.94-.31-2.23-1.51-2.76-1.05-3.25-2.35-6.39-4.32-9.21Z"/><path class="cls-3" d="m63.98,117.54c-.04-2.85.91-5.41,2.3-7.84,1,1.08.48,2.58,1.14,3.85,2.21,4.24,5.29,7.11,10.28,7.25,1.38.04,2.29.41,3,1.7.78,1.42,1.92,2.64,2.92,3.94.32.42.81.89.19,1.33-.55.39-1.13.16-1.5-.43-.07-.11-.07-.25-.14-.37-.4-.69-.63-1.98-1.58-1.56-.61.27.06,1.37.45,2.03.51.87.39,1.43-.52,2.1-2.45,1.81-5.17,1.64-7.83,1.1-1.79-.36-2.79-2.03-3.74-3.54-.29-.46-.2-1.5-.91-1.28-.95.29-.11,1.1-.04,1.65.16,1.43.6,2.85.32,4.29-.18.91-.57,1.89-1.62,2.02-1.04.12-1.39-.85-1.72-1.63-.97-2.28-2.26-4.44-2.52-6.98.79.07,1.18-.23,1.21-1.09.07-2.18.2-4.36.31-6.54Z"/><path class="cls-3" d="m166.13,117.64c-.45,3.96-1.23,7.8-3.15,11.39-1.15,2.16-2.77,3.93-4.08,5.93-1.79,2.75-4.68,2.75-7.39,3.12-.57.08-1.21-.17-1.88.04-1.86.59-2.55-1.17-3.34-2.12-.79-.95.61-1.77,1.32-2.23,4.54-2.91,7.13-7.1,8.38-12.26.12-.48.14-1.11.67-1.37,2.87-1.4,4.71-3.8,6.32-6.44,1.66-.02,2.13,1.13,2.36,2.48.1.59-.18,1.36.79,1.46Z"/><path class="cls-4" d="m112.95,157.32c-3.12-.3-6.23-.6-9.35-.88-.81-.07-.93-.44-.78-1.19,1.15-5.7,2.26-11.41,3.39-17.11.1-.51.16-1.16.69-1.33.69-.22,1.05.48,1.35.93.9,1.33,2.1,2.31,3.33,3.31,2.74,2.22,3.37,5.51,4.1,8.7.44,1.92.26,3.93.52,5.86.2,1.52-.27,1.7-1.47,1.61-.59-.04-1.18,0-1.77,0,0,.04,0,.07-.01.11Z"/><path class="cls-9" d="m124.4,140.94c1.46,4.29,2.11,8.77,2.94,13.2.29,1.55-.34,2.16-1.76,2.31-.85.09-1.69.2-2.53.33-3.98.62-3.41.86-3.84-2.87-.34-2.94-.77-5.84-1.57-8.69-.74-2.63-.54-3,1.88-4.39,1.62.26,3.26-.35,4.87.11Zm-1.37,9.38c.69-.39,2.28.58,2.29-1.09,0-1.27-1.12-1.84-2.4-1.66-1.1.16-2.89-.58-2.91,1.3-.02,1.88,1.76,1.21,3.03,1.44Z"/><path class="cls-4" d="m166.13,117.64c-.97-.1-.69-.87-.79-1.46-.23-1.35-.69-2.49-2.36-2.48.48-1.86.4-3.77.42-5.67.04-3.33-1.43-5.9-3.9-7.96-.83-.69-.93-1.38-.96-2.48-.1-3.19-.72-6.35-1.59-9.44-.79-2.82-2.07-5.52-2.21-8.51,1.19.53,1.16,1.82,1.51,2.76,2.63,7.23,5.14,14.5,7.69,21.76.61,1.73.61,3.72,2.14,5.05.02,2.8.04,5.61.06,8.42Z"/><path class="cls-3" d="m118.44,177.96c.1-1.33-.2-2.84.37-4.32.33-.85.85-1.11,1.66-.94,4.31.88,6.32,4.57,4.79,8.79-.57,1.59-2.07,2.26-4.44,1.78-1.41-.28-2.58-.97-2.39-2.78.08-.78.01-1.58.01-2.53Z"/><path class="cls-3" d="m111.62,172.2c-.44,3.17-.21,6.09-.27,9.02-.02.91-.6,1.49-1.28,1.86-2.46,1.35-5.41-.46-5.41-3.26,0-1.19,0-2.37,0-3.56,0-2.44.19-2.66,2.6-2.83.78-.06,1.61.1,2.35-.09.64-.16,1.2-.66,2.01-1.14Z"/><path class="cls-6" d="m159.86,109.05c.02,4.08-2.86,7.67-6.22,8.02-.64.07-1.58.42-1.13-1,1.24-3.85,2.47-7.71,3.56-11.61.48-1.72,1.11-1.27,1.91-.38,1.33,1.49,1.68,3.35,1.88,4.96Z"/><path class="cls-3" d="m121.45,169.08c-2.7-.01-3.75-1.26-3.39-3.99.12-.94.71-1.16,1.51-1.16,2.81,0,5.62.05,8.28-1.1.22-.09.59-.11.76.02,1.49,1.14.67,2.79.85,4.21.14,1.13-.65,1.62-1.57,1.56-2.18-.13-4.29.46-6.45.45Z"/><path class="cls-6" d="m73.35,108.62c1.89-.79,2.48.38,2.87,2.08.43,1.85,1.02,3.66,1.61,5.46.32.97.04,1.14-.89,1.03-3.39-.38-6.75-4.37-6.56-7.8.04-.66.37-.76.87-.76.66,0,1.31,0,2.11,0Z"/><path class="cls-3" d="m152.41,120.63c3.16.25,3.12.22,1.42,3.16-1.06,1.84-2.4,3.41-3.94,4.84-.53.49-1.2,1.28-1.76.46-.57-.85-2.03-1.56-1.29-2.89,1.1-2,3.01-3.43,4.09-5.48.27-.51.95-.26,1.47-.09Z"/><path class="cls-4" d="m101.81,145.63c-.75,2.92-1.53,5.84-2.25,8.77-.15.62-.36,1.04-1.03.75-1.06-.46-2.35-.46-3.15-1.47-.22-.67-.04-1.26.28-1.86,1.42-2.68,2.69-5.43,4.52-7.87,1.09.03.46,1.74,1.63,1.68Z"/><path class="cls-6" d="m114.81,161.35c-3.83-.17-7.5-.25-11.12-.93-.55-.1-1.34-.06-1.19-.92.11-.65.73-.35,1.15-.29,7.64,1.08,15.27,1,22.89-.24.4-.07.86-.16.96.34.14.69-.44.92-.94,1.01-1.48.27-2.96.55-4.46.67-2.48.19-4.97.25-7.29.36Z"/><path class="cls-6" d="m127.56,141.35c-.11-.33-.22-.65-.33-.98.1-.27.21-.55.31-.82,3.89,3.49,6.19,8.02,8.34,12.66.44.95.31,1.3-.73,1.37-.49.03-.98.23-1.75.43.54-.92,1.4-1.77.06-2.4-1.27-3.82-3.84-6.89-5.89-10.26Z"/><path class="cls-7" d="m127.56,141.35c2.04,3.37,4.62,6.44,5.89,10.26-1.04.09-1.39,1.09-2.11,1.61-.53.38-.93.82-1.16-.28-.84-3.87-1.74-7.73-2.62-11.6Z"/><path class="cls-6" d="m136.93,157.06c-.09,1.88-.37,3.33-1.83,4.22-.97.59-1.89.2-2.76-.28-.73-.4-1.18-1.02-1.21-1.88-.03-.92.73-1.13,1.36-1.44.87-.43,1.77-.81,2.6-1.33,1.32-.82,2.04-.78,1.84.71Z"/><path class="cls-6" d="m92.99,156.93c-.02-.57.02-1.37,1.39-.59.89.51,1.9.82,2.85,1.24,1.15.52,1.95,1.34,1.16,2.6-.7,1.11-1.81,1.72-3.2,1.02-1.58-.79-2.2-2.14-2.2-4.28Z"/><path class="cls-6" d="m120.17,133.77c-.51.56-.67.75-.84.92-3.96,3.89-3.81,4.87-8.53-.71.18-.07.35-.2.52-.2,2.79-.01,5.59,0,8.86,0Z"/><path class="cls-6" d="m100.18,143.94c-1.83,2.44-3.1,5.19-4.52,7.87-.32.6-.5,1.19-.28,1.86-1.35-.05-1.64-.65-1.13-1.9,1.6-3.9,3.9-7.37,6.3-10.79.43-.61,1.08-.89,1.73-1.17-.5,1.48-1.91,2.5-2.1,4.13Z"/><path class="cls-3" d="m168.92,128.82c0,2.4-1.88,3.75-3.07,5.48-.28.4-.8.45-1.23.13-.5-.37-.51-.87-.23-1.39.72-1.38,1.3-2.85,2.2-4.11.84-1.18.47-2.9,1.84-3.78.57.37.35.83.22,1.34-.21.79-.41,1.62.27,2.32Z"/><path class="cls-4" d="m63.98,117.54c-.11,2.18-.24,4.36-.31,6.54-.03.86-.42,1.15-1.21,1.09-.39-2.03-.48-4.09-.41-6.15.02-.61-.24-1.32.45-1.77.28,1.18.77,1.33,1.48.29Z"/><path class="cls-4" d="m168.92,128.82c-.68-.7-.48-1.53-.27-2.32.13-.51.35-.97-.22-1.34,0-2.01.14-4.01.77-6.56,1.51,3.82,1.07,7.03-.28,10.22Z"/><path class="cls-7" d="m124.4,140.94c-1.62-.46-3.26.15-4.87-.11,1.09-1.2,2.4-2.2,3.25-3.62.17-.29.39-.57.76-.51.49.09.5.55.54.93.12,1.1.22,2.21.33,3.31Z"/><path class="cls-7" d="m100.18,143.94c.2-1.64,1.61-2.65,2.1-4.13.35-.69.74-1.32,1.71-1.5-.75,2.52-1.47,4.92-2.18,7.31-1.18.06-.54-1.65-1.63-1.68Z"/><path class="cls-4" d="m115.29,182.5c-.39-.13-.57.17-.8.38,0-3.61,0-7.22,0-10.83.27,0,.54,0,.8,0v10.45Z"/><path class="cls-7" d="m127.54,139.55c-.1.27-.21.55-.31.82-.51-.34-.62-.81-.49-1.38l-.03.03c.39,0,.7.12.83.53Z"/><path class="cls-7" d="m126.74,138.99c-.06-.04-.12-.08-.18-.12.03,0,.08,0,.1.01.03.04.04.09.06.13,0,0,.03-.03.03-.03Z"/><path class="cls-5" d="m140.54,106.19c-.2,2.45-.61,4.82-2.46,6.66-1.91,1.91-4.4,1.85-6.2-.18-2.3-2.59-2.8-8.01-.97-10.97,1.1-1.77,2.7-2.65,4.8-2.46,2.26.21,3.43,1.79,4.22,3.66.43,1.01.68,2.13.61,3.28Zm-4.74-4.07c-.84.03-.75.62-.79,1.13-.06.76.3,1.38.95,1.54.65.17.82-.49.84-1.04.02-.77-.19-1.42-.99-1.64Z"/><path class="cls-3" d="m133.8,87.53c3.79.8,6.76,2.85,8.94,6.06.33.48.47,1.15-.12,1.6-.55.42-1.08.29-1.55-.23-2.2-2.44-4.97-3.7-8.23-3.98-1.03-.09-2.03-.58-1.83-1.84.25-1.51,1.5-1.6,2.78-1.61Z"/><path class="cls-3" d="m114.74,123.88c-1.73.01-3.23-.41-4.35-1.64-.46-.5-.9-1.21-.25-1.94.54-.6,1.15-.46,1.76-.1,1.87,1.13,3.72.98,5.55-.12.59-.35,1.23-.54,1.78.08.62.7.29,1.36-.19,1.94-1.14,1.39-2.72,1.71-4.31,1.77Z"/><path class="cls-5" d="m88.09,66.65c3.51-2.74,7.07-5.4,11.34-6.89,3.08-1.08,6.21-1.89,9.48-2.26,2.68-.31,5.34-.35,8.02-.35,3.73,0,7.37.55,10.91,1.99-1.58,0-3.15.04-4.73,0-4.91-.15-9.85-.12-14.64.89-5.42,1.14-10.97,2.16-15.69,5.45-1.42.04-2.52.88-3.66,1.56-.58.35-.93.45-1.03-.37Z"/><path class="cls-7" d="m123.03,150.32c-1.27-.23-3.05.44-3.03-1.44.02-1.89,1.81-1.15,2.91-1.3,1.28-.18,2.41.39,2.4,1.66-.01,1.67-1.6.69-2.29,1.09Z"/><path class="cls-6" d="m135.81,102.12c.8.21,1.01.87.99,1.64-.01.55-.18,1.21-.84,1.04-.64-.16-1-.79-.95-1.54.04-.52-.05-1.1.79-1.13Z"/></g><text class="cls-1" transform="translate(88.79 100.7) rotate(-34.95)"><tspan x="0" y="0">GG</tspan></text></g></svg>